<svg width="814" height="160" viewBox="0 0 814 160" fill="none" xmlns="http://www.w3.org/2000/svg">
<path d="M283.81 70.5455H296.705L310.324 103.773H310.904L324.523 70.5455H337.418V120H327.276V87.8111H326.865L314.067 119.759H307.161L294.363 87.6903H293.952V120H283.81V70.5455ZM346.033 70.5455H358.928L372.547 103.773H373.126L386.746 70.5455H399.641V120H389.499V87.8111H389.088L376.29 119.759H369.384L356.585 87.6903H356.175V120H346.033V70.5455ZM451.89 87.8594H441.314C441.12 86.491 440.726 85.2756 440.13 84.2131C439.535 83.1345 438.77 82.2169 437.836 81.4602C436.903 80.7036 435.824 80.1241 434.6 79.7216C433.393 79.3191 432.081 79.1179 430.664 79.1179C428.105 79.1179 425.875 79.7538 423.975 81.0256C422.076 82.2812 420.603 84.1165 419.556 86.5312C418.51 88.9299 417.987 91.8437 417.987 95.2727C417.987 98.7983 418.51 101.76 419.556 104.159C420.619 106.558 422.1 108.369 424 109.592C425.899 110.816 428.097 111.428 430.592 111.428C431.993 111.428 433.288 111.242 434.48 110.872C435.687 110.502 436.758 109.963 437.691 109.254C438.625 108.53 439.398 107.652 440.01 106.622C440.637 105.592 441.072 104.417 441.314 103.097L451.89 103.145C451.617 105.415 450.932 107.604 449.838 109.713C448.759 111.806 447.302 113.681 445.467 115.339C443.648 116.982 441.475 118.286 438.947 119.251C436.436 120.201 433.594 120.676 430.423 120.676C426.012 120.676 422.068 119.678 418.591 117.682C415.129 115.686 412.393 112.796 410.38 109.013C408.384 105.23 407.386 100.65 407.386 95.2727C407.386 89.8797 408.4 85.2917 410.429 81.5085C412.457 77.7254 415.21 74.8437 418.687 72.8636C422.164 70.8674 426.076 69.8693 430.423 69.8693C433.288 69.8693 435.945 70.2718 438.392 71.0767C440.855 71.8816 443.036 73.0568 444.936 74.6023C446.835 76.1316 448.381 78.0071 449.572 80.2287C450.779 82.4503 451.552 84.9938 451.89 87.8594ZM475.126 120V70.5455H507.871V79.1662H485.582V90.9503H505.697V99.571H485.582V120H475.126ZM525.36 70.5455V120H514.904V70.5455H525.36ZM533.962 120V70.5455H544.418V111.379H565.62V120H533.962ZM572.544 120V70.5455H605.868V79.1662H583V90.9503H604.154V99.571H583V111.379H605.965V120H572.544ZM614.181 120V70.5455H646.925V79.1662H624.637V90.9503H644.752V99.571H624.637V120H614.181ZM653.958 120V70.5455H664.414V111.379H685.616V120H653.958ZM692.54 120V70.5455H725.864V79.1662H702.996V90.9503H724.15V99.571H702.996V111.379H725.961V120H692.54ZM743.981 70.5455L753.954 87.4006H754.341L764.362 70.5455H776.17L761.078 95.2727L776.508 120H764.483L754.341 103.121H753.954L743.812 120H731.835L747.314 95.2727L732.125 70.5455H743.981Z" fill="white"/>
<g clip-path="url(#clip0_23_93)">
<path d="M220.5 49.375V132.5C220.5 137.141 218.446 141.592 214.789 144.874C211.132 148.156 206.172 150 201 150H123C117.828 150 112.868 148.156 109.211 144.874C105.554 141.592 103.5 137.141 103.5 132.5V27.5C103.5 22.8587 105.554 18.4075 109.211 15.1256C112.868 11.8437 117.828 10 123 10L176.625 10L220.5 49.375ZM191.25 49.375C187.371 49.375 183.651 47.9922 180.909 45.5308C178.166 43.0694 176.625 39.731 176.625 36.25V18.75H123C120.414 18.75 117.934 19.6719 116.106 21.3128C114.277 22.9538 113.25 25.1794 113.25 27.5V132.5C113.25 134.821 114.277 137.046 116.106 138.687C117.934 140.328 120.414 141.25 123 141.25H201C203.586 141.25 206.066 140.328 207.894 138.687C209.723 137.046 210.75 134.821 210.75 132.5V49.375H191.25Z" fill="white"/>
<g clip-path="url(#clip1_23_93)">
<path d="M189.092 160.299C181.787 159.634 174.768 157.444 168.619 153.91C163.443 150.944 162.273 149.722 162.273 147.289C162.273 142.396 168.394 133.823 178.867 124.053C184.81 118.501 193.098 111.996 193.992 112.173C195.733 112.518 209.658 124.458 214.869 130.076C223.111 138.964 226.904 146.244 224.979 149.489C223.515 151.953 214.431 156.775 207.762 158.626C202.263 160.152 195.041 160.801 189.092 160.299ZM155.281 142.198C150.975 136.398 148.802 130.689 147.753 122.425C147.407 119.692 147.534 118.136 148.543 112.538C149.799 105.557 154.318 97.4802 159.754 92.5115C162.065 90.3973 162.273 90.3466 165.091 91.1781C168.521 92.1921 172.181 94.4128 177.847 98.9252L181.155 101.557L179.351 103.509C170.959 112.569 162.106 125.411 158.762 133.356C156.947 137.676 156.215 142.011 156.999 143.816C157.523 145.033 157.039 144.576 155.269 142.198H155.281ZM230.795 143.187C231.221 141.362 230.685 138.016 229.423 134.634C226.697 127.318 217.578 113.705 209.203 104.452L206.569 101.536L209.416 99.2345C213.14 96.2279 215.728 94.428 218.523 92.8968C220.719 91.6952 223.866 90.6254 225.215 90.6254C226.051 90.6254 228.985 93.3025 231.354 96.2228C235.119 100.95 237.753 106.301 239.095 111.95C239.977 115.641 240.052 123.54 239.233 127.221C238.465 130.518 237.306 133.735 235.775 136.819C234.743 138.812 232.178 142.68 231.048 143.937C230.472 144.586 230.466 144.581 230.795 143.187ZM189.859 89.2413C185.997 87.5175 180.037 85.6669 176.74 85.17C175.293 84.9753 173.828 84.9023 172.365 84.952C169.651 85.0737 169.772 84.952 174.129 83.1369C177.546 81.695 181.156 80.6388 184.873 79.9935C189.484 79.1366 198.165 79.1315 202.707 79.9681C207.606 80.8807 213.388 82.7668 216.644 84.5312L217.613 85.0534L215.393 84.952C210.978 84.7593 204.557 86.3209 197.652 89.2768C195.571 90.1691 193.755 90.8789 193.623 90.8587C192.348 90.3532 191.097 89.8138 189.859 89.2413Z" fill="white"/>
</g>
</g>
<defs>
<clipPath id="clip0_23_93">
<rect width="156" height="140" fill="white" transform="translate(84 10)"/>
</clipPath>
<clipPath id="clip1_23_93">
<rect width="93.0756" height="81.1215" fill="white" transform="translate(146.924 79.3457)"/>
</clipPath>
</defs>
</svg>
